<svg width="24" height="25" viewBox="0 0 24 25" fill="none" xmlns="http://www.w3.org/2000/svg">
<rect y="0.0410156" width="24" height="24" rx="12" fill="#2172E2"/>
<path d="M6 7.65422C6 7.26941 6.13514 6.95195 6.40541 6.70184C6.67567 6.45172 7.02703 6.32666 7.45946 6.32666C7.88417 6.32666 8.2278 6.44979 8.49035 6.69607C8.76061 6.95004 8.89575 7.28096 8.89575 7.68885C8.89575 8.05826 8.76448 8.36609 8.50193 8.61237C8.23166 8.86634 7.87645 8.99333 7.43629 8.99333H7.42471C7 8.99333 6.65637 8.86634 6.39382 8.61237C6.13127 8.35841 6 8.03902 6 7.65422ZM6.15058 17.7552V10.0438H8.72201V17.7552H6.15058ZM10.1467 17.7552H12.7181V13.4493C12.7181 13.1799 12.749 12.9722 12.8108 12.8259C12.9189 12.5643 13.083 12.343 13.3031 12.1622C13.5232 11.9813 13.7992 11.8909 14.1313 11.8909C14.9961 11.8909 15.4286 12.4719 15.4286 13.634V17.7552H18V13.3339C18 12.1949 17.7297 11.331 17.1892 10.7422C16.6486 10.1535 15.9344 9.85913 15.0463 9.85913C14.0502 9.85913 13.2741 10.2863 12.7181 11.1405V11.1636H12.7066L12.7181 11.1405V10.0438H10.1467C10.1622 10.2901 10.1699 11.0558 10.1699 12.3411C10.1699 13.6263 10.1622 15.431 10.1467 17.7552Z" fill="white"/>
</svg>
