<svg width="24" height="25" viewBox="0 0 24 25" fill="none" xmlns="http://www.w3.org/2000/svg">
<rect y="0.0410156" width="24" height="24" rx="12" fill="#FFBD12"/>
<path fill-rule="evenodd" clip-rule="evenodd" d="M6 12.041C6 9.64426 6 8.44588 6.57113 7.58272C6.82616 7.19727 7.15626 6.86718 7.5417 6.61214C8.40486 6.04102 9.60324 6.04102 12 6.04102C14.3968 6.04102 15.5951 6.04102 16.4583 6.61214C16.8437 6.86718 17.1738 7.19727 17.4289 7.58272C18 8.44588 18 9.64426 18 12.041C18 14.4378 18 15.6362 17.4289 16.4993C17.1738 16.8848 16.8437 17.2149 16.4583 17.4699C15.5951 18.041 14.3968 18.041 12 18.041C9.60324 18.041 8.40486 18.041 7.5417 17.4699C7.15626 17.2149 6.82616 16.8848 6.57113 16.4993C6 15.6362 6 14.4378 6 12.041ZM15.1062 12.0412C15.1062 13.7567 13.7154 15.1474 11.9999 15.1474C10.2843 15.1474 8.89362 13.7567 8.89362 12.0412C8.89362 10.3256 10.2843 8.93489 11.9999 8.93489C13.7154 8.93489 15.1062 10.3256 15.1062 12.0412ZM11.9999 14.0965C13.135 14.0965 14.0552 13.1763 14.0552 12.0412C14.0552 10.906 13.135 9.98583 11.9999 9.98583C10.8648 9.98583 9.94456 10.906 9.94456 12.0412C9.94456 13.1763 10.8648 14.0965 11.9999 14.0965ZM15.2289 9.50871C15.632 9.50871 15.9587 9.18194 15.9587 8.77883C15.9587 8.37573 15.632 8.04895 15.2289 8.04895C14.8257 8.04895 14.499 8.37573 14.499 8.77883C14.499 9.18194 14.8257 9.50871 15.2289 9.50871Z" fill="white"/>
</svg>
