<svg width="24" height="25" viewBox="0 0 24 25" fill="none" xmlns="http://www.w3.org/2000/svg">
<rect y="0.0410156" width="24" height="24" rx="12" fill="#6BD4F2"/>
<path d="M14.018 7.17501V7.17285H14.5807L14.7863 7.21391C14.9234 7.24057 15.0478 7.2755 15.1596 7.31873C15.2714 7.36195 15.3796 7.41238 15.4842 7.47001C15.5888 7.52763 15.6837 7.58635 15.7688 7.64614C15.8532 7.70521 15.929 7.76788 15.996 7.83415C16.0624 7.90115 16.1659 7.91844 16.3066 7.88602C16.4473 7.8536 16.5987 7.80858 16.761 7.75095C16.9234 7.69333 17.0839 7.62849 17.2426 7.55645C17.4013 7.48441 17.4979 7.43867 17.5326 7.41922C17.5665 7.39906 17.5845 7.38825 17.5867 7.3868L17.5888 7.38356L17.5996 7.37816L17.6105 7.37276L17.6213 7.36735L17.6321 7.36195L17.6343 7.35871L17.6375 7.35655L17.6408 7.35439L17.6429 7.35114L17.6537 7.3479L17.6646 7.34574L17.6624 7.36195L17.6592 7.37816L17.6537 7.39437L17.6483 7.41057L17.6429 7.42138L17.6375 7.43219L17.6321 7.44839C17.6285 7.4592 17.6249 7.4736 17.6213 7.49162C17.6177 7.50963 17.5834 7.58166 17.5185 7.70773C17.4536 7.8338 17.3724 7.96166 17.275 8.09133C17.1776 8.221 17.0904 8.31896 17.0132 8.38524C16.9353 8.45224 16.8837 8.49906 16.8584 8.52571C16.8332 8.55308 16.8025 8.57829 16.7665 8.60135L16.7124 8.63701L16.7015 8.64241L16.6907 8.64782L16.6886 8.65106L16.6853 8.65322L16.6821 8.65538L16.6799 8.65862L16.6691 8.66402L16.6583 8.66943L16.6561 8.67267L16.6528 8.67483L16.6496 8.67699L16.6474 8.68023L16.6453 8.68348L16.642 8.68564L16.6388 8.6878L16.6366 8.69104H16.6907L16.9937 8.62621C17.1957 8.58298 17.3886 8.53076 17.5726 8.46952L17.8647 8.37227L17.8972 8.36147L17.9134 8.35607L17.9243 8.35066L17.9351 8.34526L17.9459 8.33986L17.9567 8.33445L17.9784 8.33121L18 8.32905V8.35066L17.9946 8.35282L17.9892 8.35607L17.987 8.35931L17.9838 8.36147L17.9805 8.36363L17.9784 8.36687L17.9762 8.37011L17.9729 8.37227L17.9697 8.37443L17.9675 8.37768L17.9654 8.38092L17.9621 8.38308L17.9567 8.39388L17.9513 8.40469L17.9481 8.40685C17.9466 8.40901 17.9008 8.47024 17.8106 8.59055C17.7205 8.71157 17.6718 8.77279 17.6646 8.77424C17.6574 8.7764 17.6472 8.78721 17.6343 8.80666C17.622 8.82682 17.5455 8.90715 17.4049 9.04762C17.2642 9.1881 17.1264 9.31307 16.9915 9.42258C16.8559 9.5328 16.7874 9.66822 16.7859 9.82887C16.7838 9.98879 16.7755 10.1696 16.761 10.3713C16.7466 10.573 16.7196 10.7909 16.6799 11.025C16.6402 11.2592 16.5789 11.5239 16.4959 11.8193C16.413 12.1146 16.312 12.4028 16.193 12.6837C16.0739 12.9647 15.9495 13.2168 15.8197 13.4401C15.6898 13.6634 15.5708 13.8525 15.4626 14.0074C15.3544 14.1623 15.2444 14.3081 15.1326 14.445C15.0207 14.5819 14.8794 14.7361 14.7084 14.9075C14.5367 15.0782 14.4429 15.1719 14.4271 15.1884C14.4105 15.2043 14.3398 15.2634 14.215 15.3657C14.0909 15.4687 13.9574 15.5717 13.8146 15.6747C13.6725 15.777 13.5419 15.8624 13.4229 15.9308C13.3039 15.9992 13.1603 16.0774 12.9922 16.1653C12.8249 16.2539 12.6438 16.336 12.4491 16.4116C12.2543 16.4873 12.0487 16.5575 11.8323 16.6224C11.6159 16.6872 11.4067 16.7376 11.2047 16.7736C11.0027 16.8096 10.7737 16.8403 10.5176 16.8655L10.1335 16.9033V16.9087H9.43012V16.9033L9.33814 16.8979C9.27683 16.8943 9.22633 16.8907 9.18665 16.8871C9.14699 16.8835 8.99729 16.8637 8.7376 16.8277C8.47791 16.7916 8.27412 16.7556 8.12624 16.7196C7.97837 16.6836 7.75834 16.6151 7.46619 16.5143C7.17403 16.4134 6.92408 16.3115 6.71632 16.2085C6.50929 16.1062 6.37944 16.0414 6.32678 16.014C6.27484 15.9873 6.21641 15.9542 6.15149 15.9146L6.0541 15.8552L6.05195 15.8519L6.04869 15.8498L6.04545 15.8476L6.04328 15.8443L6.03246 15.8389L6.02164 15.8335L6.01949 15.8303L6.01623 15.8281L6.01298 15.826L6.01082 15.8227L6.00867 15.8195L6.00541 15.8173H6V15.7957L6.01082 15.7979L6.02164 15.8011L6.07033 15.8065C6.1028 15.8101 6.19117 15.8155 6.33544 15.8227C6.47972 15.8299 6.633 15.8299 6.79531 15.8227C6.95762 15.8155 7.12354 15.7993 7.29306 15.7741C7.46258 15.7489 7.66276 15.7057 7.8936 15.6444C8.12444 15.5832 8.33653 15.5105 8.52986 15.4262C8.72246 15.3412 8.85952 15.2778 8.94104 15.236C9.02183 15.1949 9.14518 15.1186 9.31109 15.0069L9.55996 14.8394L9.56213 14.8362L9.56537 14.834L9.56863 14.8319L9.57078 14.8286L9.57295 14.8254L9.57619 14.8232L9.57945 14.8211L9.58161 14.8178L9.59243 14.8146L9.60325 14.8124L9.60541 14.8016L9.60866 14.7908L9.61191 14.7886L9.61407 14.7854L9.5275 14.78C9.4698 14.7764 9.41389 14.7728 9.35978 14.7692C9.30568 14.7656 9.22092 14.7494 9.1055 14.7206C8.99009 14.6917 8.86565 14.6485 8.73219 14.5909C8.59874 14.5333 8.46889 14.4648 8.34265 14.3856C8.21642 14.3064 8.12516 14.2404 8.06889 14.1878C8.01335 14.136 7.94121 14.0625 7.85248 13.9674C7.76448 13.8716 7.68801 13.7733 7.62308 13.6724C7.55816 13.5716 7.49613 13.4552 7.43698 13.3234L7.34716 13.1267L7.34175 13.1105L7.33634 13.0943L7.33309 13.0835L7.33093 13.0727L7.34716 13.0749L7.36339 13.0781L7.48242 13.0943C7.56177 13.1051 7.68621 13.1087 7.85573 13.1051C8.02525 13.1015 8.14247 13.0943 8.20739 13.0835C8.27232 13.0727 8.312 13.0655 8.32642 13.0619L8.34806 13.0565L8.37511 13.0511L8.40216 13.0457L8.40433 13.0425L8.40757 13.0403L8.41083 13.0381L8.41298 13.0349L8.39134 13.0295L8.3697 13.0241L8.34806 13.0187L8.32642 13.0133L8.30478 13.0079C8.29036 13.0043 8.26511 12.9971 8.22904 12.9863C8.19297 12.9755 8.09559 12.9358 7.93688 12.8674C7.77819 12.799 7.65194 12.7323 7.55816 12.6675C7.46415 12.6025 7.3745 12.5314 7.28981 12.4546C7.20541 12.3768 7.11272 12.2767 7.01172 12.1542C6.91073 12.0318 6.82057 11.8895 6.74121 11.7274C6.66186 11.5653 6.60235 11.4105 6.56267 11.2628C6.52315 11.116 6.49708 10.9659 6.48477 10.8143L6.46528 10.5874L6.4761 10.5896L6.48693 10.5928L6.49775 10.5982L6.50857 10.6036L6.51939 10.609L6.53021 10.6144L6.69793 10.6901C6.80975 10.7405 6.94861 10.7837 7.11452 10.8197C7.28044 10.8558 7.37962 10.8756 7.41208 10.8792L7.46078 10.8846H7.55816L7.55601 10.8813L7.55275 10.8792L7.5495 10.877L7.54734 10.8738L7.54519 10.8705L7.54193 10.8684L7.53868 10.8662L7.53652 10.863L7.5257 10.8576L7.51488 10.8522L7.51272 10.8489L7.50947 10.8468L7.50622 10.8446L7.50406 10.8414L7.49324 10.836L7.48242 10.8305L7.48026 10.8273C7.4781 10.8259 7.44708 10.8028 7.3872 10.7582C7.32804 10.7128 7.26601 10.6541 7.20108 10.582C7.13616 10.51 7.07124 10.4343 7.00631 10.3551C6.94127 10.2757 6.88334 10.1907 6.83318 10.1012C6.78269 10.0111 6.72931 9.89658 6.67304 9.75755C6.6175 9.61924 6.5753 9.47985 6.54644 9.33938C6.51759 9.1989 6.50136 9.06023 6.49775 8.92336C6.49414 8.78648 6.49775 8.66943 6.50857 8.57218C6.51939 8.47493 6.54103 8.36507 6.57349 8.24261C6.60595 8.12015 6.65285 7.99048 6.71416 7.8536L6.80613 7.6483L6.81154 7.63209L6.81695 7.61588L6.82021 7.61372L6.82236 7.61048L6.82453 7.60724L6.82777 7.60508L6.83103 7.60724L6.83318 7.61048L6.83535 7.61372L6.83859 7.61588L6.84185 7.61804L6.844 7.62128L6.84617 7.62453L6.84941 7.62669L6.85482 7.63749L6.86023 7.6483L6.86349 7.65046L6.86564 7.6537L7.01172 7.81578C7.10911 7.92384 7.22453 8.04451 7.35798 8.17777C7.49144 8.31104 7.56538 8.38019 7.5798 8.38524C7.59424 8.391 7.61226 8.40756 7.6339 8.43495C7.65555 8.4616 7.72769 8.52536 7.85032 8.62621C7.97296 8.72705 8.13346 8.84412 8.33183 8.97739C8.53021 9.11065 8.75023 9.24212 8.99188 9.37179C9.23355 9.50146 9.49324 9.61852 9.77096 9.72297C10.0487 9.82743 10.2435 9.89586 10.3553 9.92828C10.4671 9.9607 10.6583 10.0021 10.9288 10.0525C11.1993 10.103 11.4031 10.1354 11.5401 10.1498C11.6772 10.1642 11.771 10.1725 11.8215 10.1746L11.8972 10.1768L11.8951 10.1606L11.8918 10.1444L11.8702 10.0093C11.8557 9.91928 11.8485 9.79321 11.8485 9.63113C11.8485 9.46904 11.8611 9.31957 11.8864 9.18269C11.9116 9.04582 11.9495 8.90715 12 8.76668C12.0505 8.62621 12.0999 8.51346 12.1482 8.42846C12.1973 8.34418 12.2615 8.24801 12.3408 8.13995C12.4202 8.0319 12.523 7.92024 12.6492 7.80498C12.7755 7.68972 12.9197 7.58706 13.0821 7.49702C13.2444 7.40698 13.3941 7.33853 13.5311 7.29171C13.6682 7.24489 13.7836 7.21427 13.8774 7.19987C13.9711 7.18546 14.018 7.17717 14.018 7.17501Z" fill="white"/>
</svg>
