<svg width="24" height="25" viewBox="0 0 24 25" fill="none" xmlns="http://www.w3.org/2000/svg">
<rect y="0.0410156" width="24" height="24" rx="12" fill="#FC6575"/>
<path d="M12.2928 16.6943L9.5847 16.6437C8.70787 16.626 7.82885 16.6613 6.96921 16.4785C5.66151 16.2055 5.56886 14.8669 5.47192 13.7441C5.33835 12.1655 5.39006 10.5583 5.64213 8.99294C5.78443 8.1146 6.34446 7.59048 7.21051 7.53345C10.1341 7.32646 13.0771 7.35099 15.9942 7.44756C16.3023 7.45641 16.6124 7.5048 16.9162 7.55987C18.4158 7.82848 18.4523 9.34541 18.5495 10.6224C18.6465 11.9125 18.6056 13.2093 18.4203 14.4907C18.2716 15.5516 17.9872 16.4413 16.787 16.5272C15.2831 16.6395 13.8138 16.7299 12.3057 16.7011C12.3058 16.6943 12.2971 16.6943 12.2928 16.6943ZM10.7007 14.0083C11.834 13.3434 12.9456 12.6895 14.0724 12.029C12.937 11.3641 11.8275 10.7102 10.7007 10.0498V14.0083Z" fill="white"/>
</svg>
